<svg width="60" height="65" viewBox="0 0 60 65" fill="none" xmlns="http://www.w3.org/2000/svg">
<path d="M40 60C48.2843 60 55 53.2843 55 45C55 36.7157 48.2843 30 40 30C31.7157 30 25 36.7157 25 45C25 53.2843 31.7157 60 40 60Z" stroke="#961914" stroke-width="2" stroke-linecap="round" stroke-linejoin="round"/>
<path d="M46.4966 48.7494C45.8376 49.8891 44.8905 50.8355 43.7502 51.4934C42.6098 52.1513 41.3165 52.4976 40 52.4976C38.6835 52.4976 37.3902 52.1513 36.2499 51.4934C35.1096 50.8355 34.1624 49.8892 33.5034 48.7495" stroke="#961914" stroke-width="2" stroke-linecap="round" stroke-linejoin="round"/>
<path d="M34.375 43.75C35.4105 43.75 36.25 42.9105 36.25 41.875C36.25 40.8395 35.4105 40 34.375 40C33.3395 40 32.5 40.8395 32.5 41.875C32.5 42.9105 33.3395 43.75 34.375 43.75Z" fill="#961914"/>
<path d="M45.625 43.75C46.6605 43.75 47.5 42.9105 47.5 41.875C47.5 40.8395 46.6605 40 45.625 40C44.5895 40 43.75 40.8395 43.75 41.875C43.75 42.9105 44.5895 43.75 45.625 43.75Z" fill="#961914"/>
<path d="M29.9849 10.5218C29.741 7.64802 29.2622 4.80236 28.8104 1.99999" stroke="#EC7973" stroke-width="3" stroke-linecap="round"/>
<path d="M19.2429 15.1705L13.7478 9.35636" stroke="#EC7973" stroke-width="3" stroke-linecap="round"/>
<path d="M9.71527 26.9273C8.04166 26.4446 6.31768 26.1628 4.69262 25.5451C3.68193 25.1609 2.88576 25.5247 2 24.5875" stroke="#EC7973" stroke-width="3" stroke-linecap="round"/>
</svg>
