<svg width="70" height="78" viewBox="0 0 70 78" fill="none" xmlns="http://www.w3.org/2000/svg">
<path d="M34.0179 52.749C34.006 52.5418 34.0001 52.3338 34 52.125C34.0003 50.2471 34.651 48.4273 35.8415 46.9749C37.0319 45.5225 38.6887 44.5273 40.53 44.1584C42.3713 43.7894 44.2836 44.0696 45.9416 44.9513C47.5997 45.833 48.9013 47.2617 49.625 48.9945L49.625 48.9946C50.3487 47.2617 51.6503 45.833 53.3083 44.9513C54.9664 44.0697 56.8787 43.7895 58.72 44.1584C60.5613 44.5273 62.2181 45.5225 63.4085 46.9749C64.599 48.4272 65.2497 50.2471 65.25 52.125C65.25 62.75 49.625 71.5 49.625 71.5C49.625 71.5 43.3836 68.0049 38.7902 62.7502" stroke="#961914" stroke-width="2" stroke-linecap="round" stroke-linejoin="round"/>
<path d="M29.9849 10.5217C29.741 7.64797 29.2622 4.80231 28.8104 1.99995" stroke="#EC7973" stroke-width="3" stroke-linecap="round"/>
<path d="M19.2429 15.1704L13.7478 9.35632" stroke="#EC7973" stroke-width="3" stroke-linecap="round"/>
<path d="M9.71527 26.9272C8.04166 26.4445 6.31768 26.1627 4.69262 25.545C3.68193 25.1609 2.88576 25.5246 2 24.5875" stroke="#EC7973" stroke-width="3" stroke-linecap="round"/>
</svg>
